name C:\Users\u0101727\Documents\MyRepositories\paper-ad\predictivesimulations_2d/Results/PredSim_2D/IK_c4.mot
datacolumns 11
datarows 47
range 0.26600000 0.35800000
endheader
time	pelvis_tilt	pelvis_tx	pelvis_ty	hip_flexion_l	hip_flexion_r	knee_angle_l	knee_angle_r	ankle_angle_l	ankle_angle_r	lumbar_extension	
          0.26600000	        -29.44233551	          0.35707544	          0.92568943	         33.16926963	         33.20203569	        -84.56908127	        -84.61537907	         16.20783611	         16.30621840	          2.81802817	
          0.26800000	        -29.38920980	          0.35946563	          0.92570767	         33.18550758	         33.22110505	        -84.58379992	        -84.63235509	         16.27758514	         16.36224231	          2.68452353	
          0.27000000	        -29.34443325	          0.36184178	          0.92571281	         33.21377420	         33.25188660	        -84.59912107	        -84.64948898	         16.34613530	         16.41624356	          2.55917700	
          0.27200000	        -29.30971822	          0.36420827	          0.92570406	         33.25460099	         33.29480428	        -84.61461719	        -84.66629486	         16.41348062	         16.47003950	          2.44528704	
          0.27400000	        -29.28397785	          0.36657177	          0.92568141	         33.30513759	         33.34695610	        -84.62951645	        -84.68198341	         16.47796818	         16.52296144	          2.34285599	
          0.27600000	        -29.26619105	          0.36893853	          0.92564469	         33.36272583	         33.40565528	        -84.64326405	        -84.69600354	         16.53891231	         16.57524319	          2.25188394	
          0.27800000	        -29.25539764	          0.37131433	          0.92559493	         33.42485127	         33.46842066	        -84.65536989	        -84.70792160	         16.59582024	         16.62689869	          2.17237093	
          0.28000000	        -29.25076009	          0.37370422	          0.92553413	         33.48937442	         33.53313720	        -84.66551872	        -84.71745058	         16.64747537	         16.67662345	          2.10431697	
          0.28200000	        -29.25157593	          0.37611239	          0.92546663	         33.55451302	         33.59805861	        -84.67350329	        -84.72441064	         16.69285054	         16.72291332	          2.04772206	
          0.28400000	        -29.25726804	          0.37854225	          0.92539440	         33.61882920	         33.66175988	        -84.67926442	        -84.72872820	         16.73177675	         16.76440345	          2.00258622	
          0.28600000	        -29.26739284	          0.38099637	          0.92531876	         33.68115872	         33.72323767	        -84.68278678	        -84.73054905	         16.76470636	         16.80071344	          1.96890944	
          0.28800000	        -29.28156260	          0.38347701	          0.92524128	         33.74045224	         33.78167718	        -84.68401523	        -84.73004875	         16.79168986	         16.83061915	          1.94669173	
          0.29000000	        -29.29945106	          0.38598604	          0.92516291	         33.79589155	         33.83635765	        -84.68297981	        -84.72732670	         16.81237452	         16.85254829	          1.93593309	
          0.29200000	        -29.32080306	          0.38852493	          0.92508434	         33.84688499	         33.88669108	        -84.67980568	        -84.72248747	         16.82664276	         16.86558675	          1.93663352	
          0.29400000	        -29.34540622	          0.39109486	          0.92500546	         33.89301298	         33.93217449	        -84.67467452	        -84.71561247	         16.83332439	         16.86837544	          1.94879303	
          0.29600000	        -29.37310290	          0.39369668	          0.92492622	         33.93399315	         33.97247536	        -84.66782439	        -84.70689260	         16.83125538	         16.85997891	          1.97241161	
          0.29800000	        -29.40371181	          0.39633139	          0.92484739	         33.96939221	         34.00715465	        -84.65941427	        -84.69649598	         16.82160049	         16.84198806	          2.00748927	
          0.30000000	        -29.43705939	          0.39899996	          0.92477070	         33.99871330	         34.03571444	        -84.64961106	        -84.68461420	         16.80882760	         16.81997769	          2.05402600	
          0.30200000	        -29.47298567	          0.40170325	          0.92469238	         34.02150726	         34.05769419	        -84.63860731	        -84.67144736	         16.79696071	         16.79965550	          2.11202182	
          0.30400000	        -29.51125523	          0.40444271	          0.92461640	         34.03713496	         34.07246666	        -84.62627647	        -84.65686418	         16.78659190	         16.78185436	          2.18147671	
          0.30600000	        -29.55177144	          0.40721892	          0.92454469	         34.04533742	         34.07981364	        -84.61254520	        -84.64080708	         16.77733997	         16.76552911	          2.26239067	
          0.30800000	        -29.59472792	          0.41003068	          0.92447727	         34.04660258	         34.08030165	        -84.59757444	        -84.62351366	         16.76960371	         16.75103715	          2.35476370	
          0.31000000	        -29.64070404	          0.41287433	          0.92441660	         34.04255535	         34.07559012	        -84.58206888	        -84.60572546	         16.76294848	         16.73816753	          2.45859577	
          0.31200000	        -29.69059184	          0.41574432	          0.92436515	         34.03566859	         34.06815085	        -84.56681293	        -84.58821780	         16.75539609	         16.72473045	          2.57388681	
          0.31400000	        -29.74538286	          0.41863463	          0.92432400	         34.02864273	         34.06064519	        -84.55226387	        -84.57142606	         16.74264043	         16.70654036	          2.70063306	
          0.31600000	        -29.80293943	          0.42154117	          0.92429405	         34.02064362	         34.05212276	        -84.53879308	        -84.55566629	         16.72044876	         16.67945471	          2.83499877	
          0.31800000	        -29.85716180	          0.42446299	          0.92427613	         34.00604982	         34.03684500	        -84.52661930	        -84.54113871	         16.68837052	         16.64259514	          2.96846252	
          0.32000000	        -29.90283331	          0.42739875	          0.92427100	         33.98017773	         34.01001722	        -84.51593264	        -84.52802569	         16.64693653	         16.59642665	          3.09360746	
          0.32200000	        -29.93855378	          0.43034396	          0.92427899	         33.94287623	         33.97141204	        -84.50697522	        -84.51657203	         16.59645893	         16.54124033	          3.20749980	
          0.32400000	        -29.96521229	          0.43329246	          0.92430040	         33.89658790	         33.92345162	        -84.49982288	        -84.50686988	         16.53762384	         16.47773876	          3.30993320	
          0.32600000	        -29.98375443	          0.43623876	          0.92433499	         33.84356121	         33.86840462	        -84.49423465	        -84.49869035	         16.47108261	         16.40664525	          3.40090761	
          0.32800000	        -29.99500743	          0.43917808	          0.92438189	         33.78573175	         33.80825989	        -84.48995609	        -84.49180022	         16.39754464	         16.32869156	          3.48042299	
          0.33000000	        -29.99971596	          0.44210606	          0.92443984	         33.72483069	         33.74481631	        -84.48681812	        -84.48605258	         16.31843909	         16.24526215	          3.54847934	
          0.33200000	        -29.99854742	          0.44501881	          0.92450715	         33.66238836	         33.67966889	        -84.48471500	        -84.48135650	         16.23639950	         16.15883901	          3.60507664	
          0.33400000	        -29.99208755	          0.44791288	          0.92458230	         33.59974074	         33.61420325	        -84.48360996	        -84.47768013	         16.15476729	         16.07261391	          3.65021491	
          0.33600000	        -29.98084501	          0.45078526	          0.92466428	         33.53805011	         33.54961176	        -84.48347515	        -84.47499019	         16.07661870	         15.98947145	          3.68389411	
          0.33800000	        -29.96528189	          0.45363321	          0.92475145	         33.47837861	         33.48697702	        -84.48436696	        -84.47334008	         16.00552839	         15.91284627	          3.70611426	
          0.34000000	        -29.94582960	          0.45645416	          0.92484136	         33.42169947	         33.42729250	        -84.48634945	        -84.47280322	         15.94568165	         15.84694751	          3.71687536	
          0.34200000	        -29.92288502	          0.45924574	          0.92493160	         33.36893273	         33.37149795	        -84.48949803	        -84.47346068	         15.89994760	         15.79480259	          3.71617740	
          0.34400000	        -29.89679192	          0.46200593	          0.92502096	         33.32087385	         33.32040437	        -84.49376851	        -84.47526632	         15.86959871	         15.75782902	          3.70402038	
          0.34600000	        -29.86786580	          0.46473287	          0.92510760	         33.27828767	         33.27479541	        -84.49916188	        -84.47822810	         15.85474680	         15.73634910	          3.68040431	
          0.34800000	        -29.83638967	          0.46742492	          0.92519028	         33.24183997	         33.23535150	        -84.50556374	        -84.48222234	         15.85495373	         15.73022273	          3.64532918	
          0.35000000	        -29.80260684	          0.47008074	          0.92526931	         33.21207201	         33.20262007	        -84.51276772	        -84.48703015	         15.87003698	         15.73955778	          3.59879498	
          0.35200000	        -29.76663544	          0.47269965	          0.92534288	         33.18924511	         33.17689640	        -84.52068095	        -84.49254366	         15.89916049	         15.76409709	          3.54080173	
          0.35400000	        -29.72850233	          0.47528147	          0.92540933	         33.17347512	         33.15830470	        -84.52941497	        -84.49884405	         15.94076908	         15.80319626	          3.47134944	
          0.35600000	        -29.68821326	          0.47782598	          0.92546948	         33.16497454	         33.14701812	        -84.53947351	        -84.50641861	         15.99298330	         15.85522450	          3.39043811	
          0.35800000	        -29.64571863	          0.48033324	          0.92552509	         33.16387009	         33.14311677	        -84.55148508	        -84.51588283	         16.05344321	         15.91798138	          3.29806772	
